<?xml version="1.0" encoding="utf-8"?>
<svg version="1.1" id="Layer_1" xmlns="http://www.w3.org/2000/svg" xmlns:xlink="http://www.w3.org/1999/xlink" x="0px" y="0px"
	 width="204.8px" height="93.9px" viewBox="0 0 1024 313" style="enable-background:new 0 0 1024 313;" xml:space="preserve">
<style type="text/css">
	.st0{fill-rule:evenodd;clip-rule:evenodd;fill:#FF7738;}
	.st1{fill:#FF7738;}
</style>
<g>
	<g>
		<g>
			<path class="st0" d="M28.4,65.1c-1.7,0.6-4.7,2.5-6.2,3.4l-5.5,3.9c-2.2,1.8-6.5,4.8-5.8,8.1c0.6,2.8,0.9,5.2,4.1,2.4
				c2.4-2.1,14.2-10,17.8-9.7c2,0.2,3.5,2,3.2,4.3c-0.2,2.1-2.2,2.9-3.9,3.7c-4.7,2.2-10.1,5.6-14,8.7c-3.7,3-5,5.4-2.9,9.9
				c1.9,0.5,2.7-0.6,5.1-2.3c1.3-0.9,3.1-2,4.7-2.9c1.5-0.8,8.8-4.9,10.5-5c2.3-0.1,4,1.6,4,3.9c-0.1,2.5-1.6,3-3.6,3.9
				c-4.3,2.1-16.5,8.5-18.2,12.3c-0.5,1,0.5,5.2,1.1,5.8c0.9,0.9,1.8,0.2,2.6-0.4c2.6-1.9,15-9,17.5-9.2c2.2-0.2,4,1.4,4.1,3.5
				c0.1,2.7-1.7,3.4-3.6,4.3c-3.6,1.7-18,8.9-18.5,12.1c-0.2,1.5,0.7,5.3,1.8,5.8c1.1,0.5,3.9-1.7,4.8-2.2c1.6-0.9,3.2-1.8,4.9-2.7
				c2-1,8.8-4.8,10.9-4.5c2,0.3,3.5,2.1,3,4.5c-0.4,2.2-2.2,2.6-4.1,3.5c-4,1.8-11.5,5.5-14.9,8.1c-1.8,1.4-3.4,1.4-3,4.1
				c0.3,2.9,1.2,4.7,2.5,5c1.8,0.4,12-6.1,14-7c3-1.3,7-3.6,8.7,0.1c2,4.2-2.9,5.5-5.6,6.8c-4.7,2.2-15.5,6.6-15.7,11.9
				c0.3,2.9,2.8,8.9,4.1,11c6.9,11.9,17.8,14.3,31.7,13.8l8.6,28.8c1.5,4.9,2.6,10.2,5.8,12.9c6.7,5.6,16.6,4.6,23.6-0.2
				c7.9-5.5,7.6-17.4,6.1-26.5c-0.6-3.5-1-6.7-1.6-10.3c-0.4-2.5-1.5-7.7-1.5-10.2c1.2-0.7,5.4-1.6,7-2.1c6.5-2.1,12.9-4.4,18.8-7.7
				c7-3.8,14.7-9.6,15.3-20.2c0.3-5.3-1.3-10.5-2.4-15.5c-0.6-2.6-0.7-5.1-3.4-5.3c-4.5-0.4-15.2,0.5-17-1c-2-1.6-1.7-4.6,0.2-6
				c2.6-1.9,14.7,0.4,16.3-0.8c0.4-0.3,0.1,0.3,0.5-0.6c0.1-0.4,0.1-0.5,0.1-0.9c0-3.7-2-6-5.8-6.6c-3.1-0.5-11.4-0.2-13.3-0.8
				c-3.8-1.2-3.8-7.3,1.9-7.3c2.2,0,12.3,0.9,13.4,0.3c0.9-1.6-0.3-4.5-1.1-5.7c-2.9-4.1-14.9-2.3-17.8-3.6
				c-3.1-1.4-3.8-7.4,2.8-7.1c2.1,0.1,12,1.1,12.8,0.7c0.8-1.8-0.3-4.6-1.3-5.8c-3.6-4.2-14.3-2.6-17.5-4c-1.5-0.6-2.8-2.6-2-4.7
				c1.3-3.5,7-2.3,11.3-1.8l4.6,0.7c3.4,0.3,0.8-4.8,0.1-5.8c-2-2.8-7.2-3.3-10.7-3.7c-1.5-0.2-5.3-0.3-6.4-0.7
				c-3.8-1.3-3.6-7.7,2.4-7.2c2.1,0.2,4.3,0.4,6.5,0.7c1.5,0.2,4.5,1.2,6,0.8c0.5-2-0.5-4.4-1.4-5.7c-3-4.2-14.7-3.9-16.9-4.8
				c-3.5-1.4-3.3-7.6,2.8-7c2.2,0.2,4.4,0.5,6.5,0.8c2.4,0.4,5.6,2.1,5.9,0.1c0-0.2-0.1-0.6-0.1-0.8c-0.7-3.6-1.7-7.3-3.2-10.7
				c-1-2.3-4.4-8.3-6.2-9.5c0.8,2.3,5.2,11.8,2.6,14.1c-0.8,0.7-2.2,1-3.4,0.6c-2.2-0.8-1.9-4.6-3.6-10.1
				c-2.8-8.9-10.2-16.8-20-16.6c2.9,2.2,3,1.2,6.7,5.7c3.2,3.8,7,14.4,6.2,18c-0.6,2.8-5.8,4-6.7-0.3c-1.9-8.6-3.1-13.6-9-18.5
				c-0.6-0.5-0.9-0.8-1.6-1.4c-3.4-2.6-10.5-4.3-14.6-3.4c2.7,1.7,4.6,3.1,6.2,5.7c2,3.2,6.6,15.4,3.5,18.2c-1.1,1-3.2,1.6-4.8,0.7
				c-1.3-0.7-1.6-2-2-4.1c-1.3-7.2-3.6-12.9-8.7-15.5c-2.4-1.2-6.8-2.4-10-2l-2.8,1c-0.2,0.1-0.4,0.1-0.6,0.2
				c-0.5,0.2-0.6,0.2-1.1,0.4c-3.5,1.4-4.6,2.1-7.3,3.3c-4.5,2-8.7,4.4-12.7,7c-11.1,7.1-18,14.4-21.9,26.6c-2.7,8.1-1,13,0.2,20.9
				l12.5-9c1.2-0.6,5.9-3.4,7.2-3.7C32.4,56.1,35.8,60.8,28.4,65.1 M84.1,38.4c2.8-0.2,5.8-0.1,8.7-0.1c3.1,0,5.4-0.1,6.4,2.3
				c1,2.6-0.8,4.9-3.1,5.2c-2.2,0.3-6.1,0-8.6,0c-13.9,0.2-23.5,2.8-35.2,8.1c-5.8,2.6-8.7-4.4-2.8-6.9
				C61.8,41.7,69.2,39.3,84.1,38.4z M89.3,54.9c2.8-0.2,5.8-0.2,8.6-0.2c2.8,0,4.9,1,4.8,3.8c-0.1,5.1-7.2,3.3-13.5,3.8
				c-11.4,0.8-18.4,2.6-28.3,6.2c-1.8,0.7-4.6,2.1-6.3,2.5c-2.7,0.7-4.9-1.2-4.8-3.7c0.1-2.7,2.2-3.3,4.5-4.2
				C66.4,58.2,75.3,55.8,89.3,54.9z M104.1,77.8c-3.1,1.6-14.9,1.1-21.4,2.4c-7.7,1.6-16.5,4.4-21.5,6.3c-1.5,0.6-3.4,1.7-5.2,1.2
				c-2.7-0.7-4.6-5.2,0.4-7.3l14.2-5c5.5-1.6,24.9-6.5,32.7-3.6C106.3,73,106,76.9,104.1,77.8z M100.3,87.7c2.6-0.2,6.1-0.7,7.8,0.8
				c1.9,1.6,1.3,4.5-0.5,5.8c-1.6,1.1-5.5,0.7-7.7,0.9c-13.5,0.9-22.6,3.6-35,8.1c-2.2,0.8-4.8,2.2-6.8,0.4
				c-1.8-1.6-1.4-4.7,0.5-5.9c2-1.3,9.8-3.6,12.6-4.5C80.9,90.1,89.4,88.5,100.3,87.7z M104.6,104.2c3.2-0.2,5.6-0.9,7.1,1.2
				c1.6,2.1,0.6,4.8-1.2,5.7c-0.7,0.4-13,1.4-15.4,1.8c-9.9,1.6-18.3,4.5-27.2,7.4c-2.4,0.8-4.8,2-6.6-0.2c-1.8-2.2-0.6-5,1.3-5.8
				c3.4-1.6,9.1-3.1,12.9-4.3C84.4,107,94.5,104.8,104.6,104.2z M111.4,120.5c2.5-0.1,4.7,1.4,4.4,4.2c-0.3,2.8-2.3,3.1-5.3,3.4
				c-9.2,0.6-20.2,2.9-28.9,5.6l-13.1,4.1c-2.6,0.5-4.8-1.5-4.5-4.2c0.3-2.5,2.6-3.1,4.8-3.8c4.3-1.4,8.6-2.8,13.2-4
				C91.5,123.2,100.8,121.1,111.4,120.5z M121,134.4c2.6-0.4,3.7,1.4,4.1,3.7c0.4,2.3,0.8,4.5,1,6.8c1,9.4-0.2,17.4-8.5,22.5
				c-13.8,8.5-16.1,4.7-13,2.6c3-2.1,9.6-3.4,13.4-10.1c2.2-3.9,2.1-8.8,1.6-13.7C119,141.1,116.4,135.1,121,134.4z M100.8,136.8
				c2.8-1.2,4.7,1.1,5,3.2c0.4,2.3,1,5,1.2,7.4c0.6,5.3,0.9,10.5-1,15.2c-2.9,7.2-14.4,13.2-20.5,14c-2.5,0.3-6.3-0.4-5.4-3.1
				c0.5-1.5,3.8-2.5,5.5-3.1c14.7-5.8,15.8-13,13.1-27.7C98.1,139.3,98,138,100.8,136.8z M120.6,169.5c1.2-1,3.1-1.7,4.5-2.6
				c15.7-9.5,5.8-28.2,7.4-32c0.7-1.8,3.1-2.5,4.7-1.2c1.9,1.5,2.3,8.9,2.4,12c0.2,4.7-0.5,8.5-2.3,12.2c-3.8,7.5-16.3,12.1-16.4,12
				L120.6,169.5z M106.4,306.1l-0.1-74.5c-1.5,1.8-8.1,4.4-11.8,5.1c-3.8,0.7-7.7,0.7-11.5-0.3c-1-0.3-2.2-0.8-3-0.9l0,70.5H106.4z
				 M81.1,217.9c-1-4.3,1.3-7.8,4.1-8.8c3.9-1.4,7,2,7.7,5.2C95,223.6,83.3,227,81.1,217.9z"/>
		</g>
	</g>
	<g>
		<g>
			<polygon class="st1" points="223.2,199.6 223.2,99.9 183.4,99.9 183.4,35.1 327.9,35.1 327.9,99.9 288.1,99.9 288.1,199.6 			"/>
		</g>
		<g>
			<rect x="364.8" y="35.1" class="st1" width="64.7" height="164.5"/>
		</g>
		<g>
			<path class="st1" d="M566.7,202.6c-28.3,0-51.1-8.2-67.6-24.3c-16.7-16.3-24.8-35.8-24.8-59.6c0-25.3,8.5-45.5,25.9-61.9
				c17.5-16.5,39.3-24.5,66.6-24.5c11.8,0,24.3,1.6,37,4.9c9.8,2.5,18.4,5.7,25.5,9.5L602,98.5c-8.8-2.4-18.4-3.6-28.5-3.6
				c-26.8,0-32.4,11.4-32.4,21c0,7.1,3.9,13,10.9,16.7c5.8,3,13.5,4.5,23.4,4.5c9.9,0,18.9-1.4,26.8-4.2l27.1,55.4
				c-7.6,3.8-16.4,7-26.3,9.5C590.3,200.9,578.1,202.6,566.7,202.6z"/>
		</g>
		<g>
			<path class="st1" d="M787.7,199.6c-3.5-42.4-19.7-64.4-48.2-65.3l-7.5-0.2v65.6h-64.7V35.1h64.7v60.4l7.8-0.6
				c15.8-1.2,28-8.1,36.3-20.4c6.8-10.1,10.7-23.4,11.6-39.4H854c-0.6,17.6-3.2,32.4-7.9,44c-5.2,12.9-13.4,23.7-24.4,32.2l-7.5,5.8
				l7.5,5.7c21,16,33.4,41.9,36.9,76.9H787.7z"/>
		</g>
		<g>
			<path class="st1" d="M882.6,98.4h48.2V50.1h38v48.3h48.2v38h-48.2v48.2h-38v-48.2h-48.2V98.4z"/>
		</g>
	</g>
	<g>
		<path class="st1" d="M222.9,262.3c2.4,0.5,4.2,1.3,5.4,2.4c1.6,1.6,2.5,3.5,2.5,5.7c0,1.7-0.5,3.4-1.6,4.9
			c-1.1,1.6-2.6,2.7-4.5,3.4c-1.9,0.7-4.8,1.1-8.7,1.1h-16.3v-0.9h1.3c1.4,0,2.5-0.5,3.1-1.4c0.4-0.6,0.6-1.9,0.6-3.8v-22.3
			c0-2.1-0.2-3.5-0.7-4c-0.7-0.7-1.6-1.1-2.9-1.1h-1.3v-0.9h14.9c2.8,0,5,0.2,6.7,0.6c2.5,0.6,4.5,1.7,5.8,3.2c1.3,1.5,2,3.3,2,5.3
			c0,1.7-0.5,3.3-1.6,4.6C226.5,260.6,225,261.6,222.9,262.3z M209.6,260.9c0.6,0.1,1.3,0.2,2.1,0.3c0.8,0.1,1.7,0.1,2.7,0.1
			c2.5,0,4.3-0.3,5.6-0.8s2.2-1.4,2.9-2.5c0.7-1.1,1-2.3,1-3.6c0-2-0.8-3.7-2.5-5.2c-1.6-1.4-4-2.1-7.2-2.1c-1.7,0-3.2,0.2-4.6,0.6
			V260.9z M209.6,277.4c2,0.5,3.9,0.7,5.8,0.7c3.1,0,5.4-0.7,7-2.1s2.4-3.1,2.4-5.1c0-1.3-0.4-2.6-1.1-3.9c-0.7-1.2-1.9-2.2-3.6-2.9
			c-1.6-0.7-3.7-1.1-6.1-1.1c-1.1,0-1.9,0-2.7,0.1c-0.7,0-1.3,0.1-1.8,0.2V277.4z"/>
		<path class="st1" d="M246.6,255.9c3.5,0,6.4,1.3,8.5,4c1.8,2.3,2.7,4.9,2.7,7.9c0,2.1-0.5,4.2-1.5,6.3c-1,2.1-2.4,3.7-4.1,4.8
			c-1.8,1.1-3.7,1.6-5.9,1.6c-3.5,0-6.3-1.4-8.4-4.2c-1.7-2.4-2.6-5-2.6-7.9c0-2.1,0.5-4.3,1.6-6.4c1.1-2.1,2.5-3.7,4.2-4.7
			C242.8,256.4,244.7,255.9,246.6,255.9z M245.8,257.5c-0.9,0-1.8,0.3-2.7,0.8c-0.9,0.5-1.6,1.5-2.2,2.8c-0.6,1.3-0.8,3.1-0.8,5.2
			c0,3.4,0.7,6.3,2,8.8c1.3,2.5,3.1,3.7,5.3,3.7c1.6,0,3-0.7,4.1-2c1.1-1.4,1.6-3.7,1.6-7c0-4.1-0.9-7.4-2.7-9.8
			C249.2,258.4,247.7,257.5,245.8,257.5z"/>
		<path class="st1" d="M272.6,255.9c3.5,0,6.4,1.3,8.5,4c1.8,2.3,2.7,4.9,2.7,7.9c0,2.1-0.5,4.2-1.5,6.3c-1,2.1-2.4,3.7-4.1,4.8
			c-1.8,1.1-3.7,1.6-5.9,1.6c-3.5,0-6.3-1.4-8.4-4.2c-1.7-2.4-2.6-5-2.6-7.9c0-2.1,0.5-4.3,1.6-6.4c1.1-2.1,2.5-3.7,4.2-4.7
			C268.9,256.4,270.7,255.9,272.6,255.9z M271.8,257.5c-0.9,0-1.8,0.3-2.7,0.8c-0.9,0.5-1.6,1.5-2.2,2.8c-0.6,1.3-0.8,3.1-0.8,5.2
			c0,3.4,0.7,6.3,2,8.8c1.3,2.5,3.1,3.7,5.3,3.7c1.6,0,3-0.7,4.1-2c1.1-1.4,1.6-3.7,1.6-7c0-4.1-0.9-7.4-2.7-9.8
			C275.2,258.4,273.7,257.5,271.8,257.5z"/>
		<path class="st1" d="M294.1,243.7v23.2l5.9-5.4c1.3-1.2,2-1.9,2.2-2.2c0.1-0.2,0.2-0.4,0.2-0.6c0-0.3-0.1-0.6-0.4-0.9
			c-0.3-0.2-0.7-0.4-1.4-0.4v-0.8h10.1v0.8c-1.4,0-2.5,0.2-3.5,0.6s-1.9,1.1-3,2.1l-6,5.5l6,7.5c1.7,2.1,2.8,3.4,3.4,4
			c0.8,0.8,1.5,1.3,2.1,1.5c0.4,0.2,1.2,0.3,2.2,0.3v0.9h-11.3v-0.9c0.6,0,1.1-0.1,1.3-0.3c0.2-0.2,0.3-0.4,0.3-0.7
			c0-0.4-0.3-1-1-1.9l-7.1-9.1v7.7c0,1.5,0.1,2.5,0.3,3c0.2,0.5,0.5,0.8,0.9,1c0.4,0.2,1.2,0.3,2.5,0.3v0.9h-11.8v-0.9
			c1.2,0,2.1-0.1,2.7-0.4c0.4-0.2,0.6-0.5,0.8-0.9c0.3-0.6,0.4-1.5,0.4-2.9v-21.2c0-2.7-0.1-4.3-0.2-4.9c-0.1-0.6-0.3-1-0.6-1.2
			c-0.3-0.2-0.6-0.3-1.1-0.3c-0.4,0-0.9,0.1-1.6,0.4l-0.4-0.9l6.9-2.8H294.1z"/>
		<path class="st1" d="M325,256.6h10.9v0.9h-0.5c-0.8,0-1.3,0.2-1.7,0.5c-0.4,0.3-0.6,0.7-0.6,1.2c0,0.7,0.3,1.6,0.8,2.7l5.7,11.7
			l5.2-12.9c0.3-0.7,0.4-1.4,0.4-2.1c0-0.3-0.1-0.5-0.2-0.7c-0.1-0.2-0.3-0.3-0.6-0.4c-0.3-0.1-0.8-0.2-1.5-0.2v-0.9h7.6v0.9
			c-0.6,0.1-1.1,0.2-1.4,0.4c-0.3,0.2-0.7,0.6-1.1,1.1c-0.2,0.2-0.4,0.9-0.9,2l-9.5,23.2c-0.9,2.3-2.1,4-3.6,5.1
			c-1.5,1.2-2.9,1.7-4.3,1.7c-1,0-1.8-0.3-2.5-0.9c-0.6-0.6-1-1.2-1-2c0-0.7,0.2-1.3,0.7-1.7c0.5-0.4,1.1-0.6,1.9-0.6
			c0.6,0,1.3,0.2,2.3,0.6c0.7,0.3,1.1,0.4,1.3,0.4c0.5,0,1.1-0.3,1.7-0.8c0.6-0.5,1.2-1.5,1.8-3l1.7-4l-8.4-17.6
			c-0.3-0.5-0.7-1.2-1.2-2c-0.4-0.6-0.8-1-1-1.2c-0.4-0.3-1-0.5-1.9-0.7V256.6z"/>
		<path class="st1" d="M363.7,255.9c3.5,0,6.4,1.3,8.5,4c1.8,2.3,2.7,4.9,2.7,7.9c0,2.1-0.5,4.2-1.5,6.3c-1,2.1-2.4,3.7-4.1,4.8
			c-1.8,1.1-3.7,1.6-5.9,1.6c-3.5,0-6.3-1.4-8.4-4.2c-1.7-2.4-2.6-5-2.6-7.9c0-2.1,0.5-4.3,1.6-6.4c1.1-2.1,2.5-3.7,4.2-4.7
			C359.9,256.4,361.8,255.9,363.7,255.9z M362.9,257.5c-0.9,0-1.8,0.3-2.7,0.8c-0.9,0.5-1.6,1.5-2.2,2.8c-0.6,1.3-0.8,3.1-0.8,5.2
			c0,3.4,0.7,6.3,2,8.8c1.3,2.5,3.1,3.7,5.3,3.7c1.6,0,3-0.7,4.1-2c1.1-1.4,1.6-3.7,1.6-7c0-4.1-0.9-7.4-2.7-9.8
			C366.3,258.4,364.8,257.5,362.9,257.5z"/>
		<path class="st1" d="M398.7,256.6v14.1c0,2.7,0.1,4.3,0.2,4.9c0.1,0.6,0.3,1,0.6,1.3c0.3,0.2,0.6,0.4,1,0.4c0.5,0,1.1-0.1,1.8-0.4
			l0.4,0.9l-7,2.9h-1.1v-4.9c-2,2.2-3.5,3.5-4.6,4.1c-1,0.6-2.2,0.8-3.3,0.8c-1.3,0-2.4-0.4-3.4-1.1c-1-0.8-1.6-1.7-2-2.9
			c-0.4-1.2-0.6-2.9-0.6-5v-10.4c0-1.1-0.1-1.9-0.4-2.3c-0.2-0.4-0.6-0.7-1.1-1c-0.5-0.2-1.3-0.3-2.5-0.3v-0.9h8.2v15.6
			c0,2.2,0.4,3.6,1.1,4.3c0.8,0.7,1.7,1,2.7,1c0.7,0,1.6-0.2,2.5-0.7s2-1.3,3.3-2.6V261c0-1.3-0.2-2.2-0.7-2.7
			c-0.5-0.5-1.5-0.7-3-0.8v-0.9H398.7z"/>
		<path class="st1" d="M411.2,255.9v5.2c1.9-3.5,3.9-5.2,6-5.2c0.9,0,1.7,0.3,2.3,0.9c0.6,0.6,0.9,1.2,0.9,2c0,0.7-0.2,1.2-0.7,1.7
			c-0.4,0.5-1,0.7-1.6,0.7c-0.6,0-1.3-0.3-2-0.9c-0.7-0.6-1.3-0.9-1.6-0.9c-0.3,0-0.6,0.2-1,0.5c-0.8,0.7-1.6,1.8-2.4,3.4v11.2
			c0,1.3,0.2,2.3,0.5,2.9c0.2,0.5,0.6,0.8,1.2,1.1c0.6,0.3,1.4,0.5,2.4,0.5v0.9h-11.9v-0.9c1.2,0,2.1-0.2,2.6-0.6
			c0.4-0.3,0.7-0.7,0.9-1.3c0.1-0.3,0.1-1.1,0.1-2.5v-9c0-2.7-0.1-4.3-0.2-4.8c-0.1-0.5-0.3-0.9-0.6-1.1c-0.3-0.2-0.7-0.4-1.1-0.4
			c-0.5,0-1.1,0.1-1.8,0.4l-0.3-0.9l7-2.8H411.2z"/>
		<path class="st1" d="M441.5,248.9v7.6h5.4v1.8h-5.4v15.1c0,1.5,0.2,2.5,0.6,3c0.4,0.5,1,0.8,1.7,0.8c0.6,0,1.1-0.2,1.6-0.5
			c0.5-0.3,0.9-0.9,1.2-1.5h1c-0.6,1.7-1.4,2.9-2.5,3.7c-1.1,0.8-2.2,1.3-3.4,1.3c-0.8,0-1.5-0.2-2.3-0.6c-0.7-0.4-1.3-1-1.7-1.9
			c-0.4-0.8-0.5-2-0.5-3.7v-15.7h-3.7v-0.8c0.9-0.4,1.9-1,2.9-1.9c1-0.9,1.8-1.9,2.6-3.2c0.4-0.6,0.9-1.8,1.6-3.5H441.5z"/>
		<path class="st1" d="M457.2,255.9v18.7c0,1.5,0.1,2.4,0.3,2.9c0.2,0.5,0.5,0.8,0.9,1.1c0.4,0.2,1.2,0.4,2.3,0.4v0.9h-11.3v-0.9
			c1.1,0,1.9-0.1,2.3-0.3c0.4-0.2,0.7-0.6,0.9-1.1c0.2-0.5,0.3-1.5,0.3-2.9v-9c0-2.5-0.1-4.2-0.2-4.9c-0.1-0.5-0.3-0.9-0.6-1.1
			c-0.3-0.2-0.6-0.3-1-0.3c-0.5,0-1.1,0.1-1.7,0.4l-0.4-0.9l7-2.8H457.2z M455.1,243.7c0.7,0,1.3,0.2,1.8,0.7
			c0.5,0.5,0.8,1.1,0.8,1.8s-0.3,1.3-0.8,1.8c-0.5,0.5-1.1,0.8-1.8,0.8c-0.7,0-1.3-0.3-1.8-0.8c-0.5-0.5-0.8-1.1-0.8-1.8
			s0.2-1.3,0.8-1.8C453.7,244,454.4,243.7,455.1,243.7z"/>
		<path class="st1" d="M483.4,271c-0.6,3.1-1.9,5.4-3.7,7.1c-1.8,1.7-3.9,2.5-6.1,2.5c-2.6,0-4.9-1.1-6.9-3.3c-2-2.2-2.9-5.2-2.9-9
			c0-3.7,1.1-6.6,3.3-8.9c2.2-2.3,4.8-3.4,7.8-3.4c2.3,0,4.2,0.6,5.6,1.8c1.5,1.2,2.2,2.5,2.2,3.8c0,0.6-0.2,1.2-0.6,1.6
			c-0.4,0.4-1,0.6-1.7,0.6c-1,0-1.8-0.3-2.3-1c-0.3-0.4-0.5-1-0.6-2c-0.1-1-0.4-1.8-1-2.3c-0.6-0.5-1.4-0.8-2.5-0.8
			c-1.7,0-3.1,0.6-4.1,1.9c-1.4,1.7-2.1,3.9-2.1,6.6c0,2.8,0.7,5.2,2,7.4c1.4,2.1,3.2,3.2,5.5,3.2c1.7,0,3.2-0.6,4.5-1.7
			c0.9-0.8,1.8-2.2,2.7-4.2L483.4,271z"/>
		<path class="st1" d="M493.6,243.7v23.2l5.9-5.4c1.3-1.2,2-1.9,2.2-2.2c0.1-0.2,0.2-0.4,0.2-0.6c0-0.3-0.1-0.6-0.4-0.9
			c-0.3-0.2-0.7-0.4-1.4-0.4v-0.8h10.1v0.8c-1.4,0-2.5,0.2-3.5,0.6s-1.9,1.1-3,2.1l-6,5.5l6,7.5c1.7,2.1,2.8,3.4,3.4,4
			c0.8,0.8,1.5,1.3,2.1,1.5c0.4,0.2,1.2,0.3,2.2,0.3v0.9h-11.3v-0.9c0.6,0,1.1-0.1,1.3-0.3c0.2-0.2,0.3-0.4,0.3-0.7
			c0-0.4-0.3-1-1-1.9l-7.1-9.1v7.7c0,1.5,0.1,2.5,0.3,3c0.2,0.5,0.5,0.8,0.9,1c0.4,0.2,1.2,0.3,2.5,0.3v0.9h-11.8v-0.9
			c1.2,0,2.1-0.1,2.7-0.4c0.4-0.2,0.6-0.5,0.8-0.9c0.3-0.6,0.4-1.5,0.4-2.9v-21.2c0-2.7-0.1-4.3-0.2-4.9c-0.1-0.6-0.3-1-0.6-1.2
			s-0.6-0.3-1.1-0.3c-0.4,0-0.9,0.1-1.6,0.4l-0.4-0.9l6.9-2.8H493.6z"/>
		<path class="st1" d="M516.7,265.4c0,3.5,0.8,6.2,2.5,8.1c1.7,2,3.7,2.9,6,2.9c1.5,0,2.8-0.4,4-1.3c1.1-0.8,2.1-2.3,2.8-4.3
			l0.8,0.5c-0.4,2.3-1.4,4.4-3.1,6.3c-1.7,1.9-3.9,2.9-6.4,2.9c-2.8,0-5.2-1.1-7.2-3.3c-2-2.2-3-5.1-3-8.8c0-4,1-7.1,3.1-9.3
			c2-2.2,4.6-3.3,7.7-3.3c2.6,0,4.8,0.9,6.4,2.6c1.7,1.7,2.5,4,2.5,6.9H516.7z M516.7,263.9h10.8c-0.1-1.5-0.3-2.5-0.5-3.2
			c-0.4-0.9-1.1-1.7-1.9-2.2s-1.7-0.8-2.6-0.8c-1.4,0-2.7,0.5-3.8,1.6C517.5,260.4,516.8,261.9,516.7,263.9z"/>
		<path class="st1" d="M542.6,248.9v7.6h5.4v1.8h-5.4v15.1c0,1.5,0.2,2.5,0.6,3c0.4,0.5,1,0.8,1.7,0.8c0.6,0,1.1-0.2,1.6-0.5
			c0.5-0.3,0.9-0.9,1.2-1.5h1c-0.6,1.7-1.4,2.9-2.5,3.7c-1.1,0.8-2.2,1.3-3.4,1.3c-0.8,0-1.5-0.2-2.3-0.6c-0.7-0.4-1.3-1-1.7-1.9
			c-0.4-0.8-0.5-2-0.5-3.7v-15.7h-3.7v-0.8c0.9-0.4,1.9-1,2.9-1.9c1-0.9,1.8-1.9,2.6-3.2c0.4-0.6,0.9-1.8,1.6-3.5H542.6z"/>
		<path class="st1" d="M565.3,255.9v7.9h-0.8c-0.6-2.5-1.5-4.2-2.5-5.1c-1-0.9-2.3-1.3-3.9-1.3c-1.2,0-2.1,0.3-2.9,0.9
			c-0.7,0.6-1.1,1.3-1.1,2.1c0,0.9,0.3,1.8,0.8,2.4c0.5,0.7,1.6,1.4,3.2,2.2l3.7,1.8c3.4,1.7,5.2,3.9,5.2,6.6c0,2.1-0.8,3.8-2.4,5.1
			c-1.6,1.3-3.4,1.9-5.4,1.9c-1.4,0-3-0.3-4.9-0.8c-0.6-0.2-1-0.3-1.4-0.3c-0.4,0-0.7,0.2-0.9,0.7h-0.8v-8.3h0.8
			c0.5,2.4,1.4,4.2,2.7,5.4c1.3,1.2,2.8,1.8,4.5,1.8c1.2,0,2.1-0.3,2.9-1c0.7-0.7,1.1-1.5,1.1-2.5c0-1.2-0.4-2.2-1.2-2.9
			c-0.8-0.8-2.5-1.8-4.9-3c-2.5-1.2-4.1-2.3-4.8-3.3c-0.8-1-1.1-2.2-1.1-3.7c0-1.9,0.7-3.5,2-4.8c1.3-1.3,3-1.9,5.1-1.9
			c0.9,0,2,0.2,3.3,0.6c0.9,0.3,1.4,0.4,1.7,0.4c0.3,0,0.5-0.1,0.6-0.2c0.2-0.1,0.3-0.4,0.5-0.8H565.3z"/>
		<path class="st1" d="M608.5,257.7h10.7v0.9c-1.5,0.1-2.6,0.4-3.3,1c-0.7,0.5-1.8,2.1-3.3,4.8c-1.5,2.7-3.2,5.2-5,7.5
			c1.5,1.8,2.9,3,4,3.7c1.2,0.7,2.4,1.1,3.6,1.1c1.2,0,2.2-0.3,3-1s1.4-1.6,1.7-2.8l0.9,0.7c-0.6,2.4-1.6,4.2-3,5.3
			c-1.4,1.1-3,1.7-4.9,1.7c-1.4,0-2.8-0.4-4.2-1.1c-1.4-0.8-3-2-4.7-3.8c-2.1,1.9-4,3.2-5.7,3.9c-1.7,0.7-3.5,1.1-5.4,1.1
			c-2.8,0-5-0.7-6.7-2.2c-1.6-1.5-2.5-3.3-2.5-5.3c0-2,0.7-4.1,2.2-6.1c1.5-2,4.2-4.2,8.3-6.3c-0.8-1.8-1.3-3.2-1.6-4.3
			c-0.3-1.1-0.4-2.2-0.4-3.2c0-2.9,1.1-5.1,3.2-6.6c1.7-1.2,3.5-1.8,5.7-1.8c2,0,3.7,0.6,4.9,1.8c1.3,1.2,1.9,2.7,1.9,4.4
			c0,1.8-0.6,3.4-1.8,4.7c-1.2,1.4-3.4,2.8-6.5,4.4c2.2,3.8,4.4,7.3,6.7,10.5c3-3.6,4.5-6.6,4.5-9c0-0.8-0.3-1.5-0.8-2.1
			c-0.4-0.5-0.9-0.7-1.6-0.8V257.7z M602.7,274.2c-2.2-3-3.8-5.3-4.7-6.7c-0.9-1.4-1.8-3.2-2.8-5.2c-2,1.2-3.6,2.5-4.6,3.9
			c-1,1.4-1.5,2.9-1.5,4.6c0,1.8,0.6,3.4,1.8,4.8c1.2,1.4,2.7,2.1,4.7,2.1c1.1,0,2.1-0.2,3.1-0.6S601,275.6,602.7,274.2z
			 M598.8,258.3c2.1-1,3.7-2.1,4.7-3.4c1-1.3,1.6-2.7,1.6-4.2c0-1.2-0.4-2.2-1.1-3c-0.8-0.8-1.7-1.2-2.8-1.2c-1.5,0-2.6,0.5-3.3,1.5
			c-0.8,1-1.1,2-1.1,3c0,0.8,0.1,1.8,0.4,2.8C597.4,254.8,597.9,256.3,598.8,258.3z"/>
		<path class="st1" d="M667.4,244.6l0.9,10.9h-0.9c-0.9-2.7-2.1-4.8-3.5-6.1c-2.1-2-4.7-3-7.9-3c-4.4,0-7.7,1.7-10,5.2
			c-1.9,2.9-2.9,6.4-2.9,10.5c0,3.3,0.6,6.3,1.9,9c1.3,2.7,2.9,4.7,5,6c2.1,1.3,4.2,1.9,6.3,1.9c1.3,0,2.5-0.2,3.7-0.5
			c1.2-0.3,2.3-0.8,3.4-1.4v-10c0-1.7-0.1-2.9-0.4-3.4c-0.3-0.5-0.7-0.9-1.2-1.2c-0.6-0.3-1.5-0.4-2.9-0.4v-1h13.3v1h-0.6
			c-1.3,0-2.2,0.4-2.7,1.3c-0.3,0.6-0.5,1.9-0.5,3.7v10.5c-1.9,1.1-3.9,1.8-5.8,2.3c-1.9,0.5-4,0.7-6.3,0.7
			c-6.7,0-11.7-2.1-15.2-6.4c-2.6-3.2-3.9-6.9-3.9-11.1c0-3,0.7-5.9,2.2-8.7c1.7-3.3,4.1-5.8,7.1-7.6c2.5-1.5,5.5-2.2,8.9-2.2
			c1.3,0,2.4,0.1,3.4,0.3c1,0.2,2.5,0.7,4.4,1.3c0.9,0.4,1.6,0.5,1.9,0.5c0.3,0,0.6-0.1,0.8-0.4c0.2-0.3,0.4-0.9,0.4-1.7H667.4z"/>
		<path class="st1" d="M678.6,265.4c0,3.5,0.8,6.2,2.5,8.1c1.7,2,3.7,2.9,6,2.9c1.5,0,2.8-0.4,4-1.3c1.1-0.8,2.1-2.3,2.8-4.3
			l0.8,0.5c-0.4,2.3-1.4,4.4-3.1,6.3c-1.7,1.9-3.9,2.9-6.4,2.9c-2.8,0-5.2-1.1-7.2-3.3c-2-2.2-3-5.1-3-8.8c0-4,1-7.1,3.1-9.3
			c2-2.2,4.6-3.3,7.7-3.3c2.6,0,4.8,0.9,6.4,2.6c1.7,1.7,2.5,4,2.5,6.9H678.6z M678.6,263.9h10.8c-0.1-1.5-0.3-2.5-0.5-3.2
			c-0.4-0.9-1.1-1.7-1.9-2.2c-0.8-0.5-1.7-0.8-2.6-0.8c-1.4,0-2.7,0.5-3.8,1.6C679.4,260.4,678.7,261.9,678.6,263.9z"/>
		<path class="st1" d="M704.5,248.9v7.6h5.4v1.8h-5.4v15.1c0,1.5,0.2,2.5,0.6,3c0.4,0.5,1,0.8,1.7,0.8c0.6,0,1.1-0.2,1.6-0.5
			c0.5-0.3,0.9-0.9,1.2-1.5h1c-0.6,1.7-1.4,2.9-2.5,3.7c-1.1,0.8-2.2,1.3-3.4,1.3c-0.8,0-1.5-0.2-2.3-0.6c-0.7-0.4-1.3-1-1.7-1.9
			c-0.4-0.8-0.5-2-0.5-3.7v-15.7h-3.7v-0.8c0.9-0.4,1.9-1,2.9-1.9c1-0.9,1.8-1.9,2.6-3.2c0.4-0.6,0.9-1.8,1.6-3.5H704.5z"/>
		<path class="st1" d="M733.2,255.9v18.7c0,1.5,0.1,2.4,0.3,2.9c0.2,0.5,0.5,0.8,0.9,1.1c0.4,0.2,1.2,0.4,2.3,0.4v0.9h-11.3v-0.9
			c1.1,0,1.9-0.1,2.3-0.3c0.4-0.2,0.7-0.6,0.9-1.1c0.2-0.5,0.3-1.5,0.3-2.9v-9c0-2.5-0.1-4.2-0.2-4.9c-0.1-0.5-0.3-0.9-0.6-1.1
			c-0.3-0.2-0.6-0.3-1-0.3c-0.5,0-1.1,0.1-1.7,0.4l-0.4-0.9l7-2.8H733.2z M731.1,243.7c0.7,0,1.3,0.2,1.8,0.7
			c0.5,0.5,0.8,1.1,0.8,1.8s-0.3,1.3-0.8,1.8s-1.1,0.8-1.8,0.8s-1.3-0.3-1.8-0.8c-0.5-0.5-0.8-1.1-0.8-1.8s0.2-1.3,0.8-1.8
			C729.8,244,730.4,243.7,731.1,243.7z"/>
		<path class="st1" d="M746.5,260.8c2.7-3.3,5.3-4.9,7.8-4.9c1.3,0,2.4,0.3,3.3,1s1.6,1.7,2.2,3.1c0.4,1,0.6,2.6,0.6,4.7v9.9
			c0,1.5,0.1,2.5,0.4,3c0.2,0.4,0.5,0.8,0.9,1c0.4,0.2,1.2,0.4,2.3,0.4v0.9h-11.5v-0.9h0.5c1.1,0,1.8-0.2,2.3-0.5
			c0.4-0.3,0.7-0.8,0.9-1.5c0.1-0.3,0.1-1,0.1-2.4v-9.5c0-2.1-0.3-3.7-0.8-4.6c-0.5-1-1.5-1.4-2.8-1.4c-2,0-4,1.1-6,3.3v12.3
			c0,1.6,0.1,2.5,0.3,2.9c0.2,0.5,0.6,0.9,1,1.1c0.4,0.2,1.3,0.3,2.5,0.3v0.9h-11.5v-0.9h0.5c1.2,0,2-0.3,2.4-0.9
			c0.4-0.6,0.6-1.8,0.6-3.4V266c0-2.8-0.1-4.5-0.2-5.1c-0.1-0.6-0.3-1-0.6-1.2c-0.3-0.2-0.6-0.3-1.1-0.3c-0.5,0-1,0.1-1.7,0.4
			l-0.4-0.9l7-2.8h1.1V260.8z"/>
		<path class="st1" d="M772.5,248.9v7.6h5.4v1.8h-5.4v15.1c0,1.5,0.2,2.5,0.6,3c0.4,0.5,1,0.8,1.7,0.8c0.6,0,1.1-0.2,1.6-0.5
			c0.5-0.3,0.9-0.9,1.2-1.5h1c-0.6,1.7-1.4,2.9-2.5,3.7c-1.1,0.8-2.2,1.3-3.4,1.3c-0.8,0-1.5-0.2-2.3-0.6c-0.7-0.4-1.3-1-1.7-1.9
			c-0.4-0.8-0.5-2-0.5-3.7v-15.7h-3.7v-0.8c0.9-0.4,1.9-1,2.9-1.9c1-0.9,1.8-1.9,2.6-3.2c0.4-0.6,0.9-1.8,1.6-3.5H772.5z"/>
		<path class="st1" d="M791.5,255.9c3.5,0,6.4,1.3,8.5,4c1.8,2.3,2.7,4.9,2.7,7.9c0,2.1-0.5,4.2-1.5,6.3c-1,2.1-2.4,3.7-4.1,4.8
			c-1.8,1.1-3.7,1.6-5.9,1.6c-3.5,0-6.3-1.4-8.4-4.2c-1.7-2.4-2.6-5-2.6-7.9c0-2.1,0.5-4.3,1.6-6.4c1.1-2.1,2.5-3.7,4.2-4.7
			C787.8,256.4,789.6,255.9,791.5,255.9z M790.8,257.5c-0.9,0-1.8,0.3-2.7,0.8c-0.9,0.5-1.6,1.5-2.2,2.8s-0.8,3.1-0.8,5.2
			c0,3.4,0.7,6.3,2,8.8s3.1,3.7,5.3,3.7c1.6,0,3-0.7,4.1-2c1.1-1.4,1.6-3.7,1.6-7c0-4.1-0.9-7.4-2.7-9.8
			C794.1,258.4,792.6,257.5,790.8,257.5z"/>
		<path class="st1" d="M825.9,248.9v7.6h5.4v1.8h-5.4v15.1c0,1.5,0.2,2.5,0.6,3c0.4,0.5,1,0.8,1.7,0.8c0.6,0,1.1-0.2,1.6-0.5
			c0.5-0.3,0.9-0.9,1.2-1.5h1c-0.6,1.7-1.4,2.9-2.5,3.7c-1.1,0.8-2.2,1.3-3.4,1.3c-0.8,0-1.5-0.2-2.3-0.6c-0.7-0.4-1.3-1-1.7-1.9
			c-0.4-0.8-0.5-2-0.5-3.7v-15.7h-3.7v-0.8c0.9-0.4,1.9-1,2.9-1.9c1-0.9,1.8-1.9,2.6-3.2c0.4-0.6,0.9-1.8,1.6-3.5H825.9z"/>
		<path class="st1" d="M840.5,243.7v17c1.9-2.1,3.4-3.4,4.5-4c1.1-0.6,2.2-0.9,3.3-0.9c1.3,0,2.5,0.4,3.4,1.1
			c0.9,0.7,1.7,1.9,2.1,3.4c0.3,1.1,0.5,3.1,0.5,5.9v8.2c0,1.5,0.1,2.5,0.4,3c0.2,0.4,0.5,0.7,0.9,1c0.4,0.2,1.2,0.4,2.2,0.4v0.9
			h-11.4v-0.9h0.5c1.1,0,1.8-0.2,2.3-0.5c0.4-0.3,0.7-0.8,0.9-1.5c0.1-0.3,0.1-1.1,0.1-2.4v-8.2c0-2.5-0.1-4.2-0.4-5
			c-0.3-0.8-0.7-1.4-1.3-1.8c-0.6-0.4-1.3-0.6-2.1-0.6c-0.8,0-1.7,0.2-2.6,0.7c-0.9,0.4-2,1.3-3.2,2.7v12.3c0,1.6,0.1,2.6,0.3,3
			c0.2,0.4,0.5,0.7,1,1s1.3,0.4,2.5,0.4v0.9h-11.5v-0.9c1,0,1.8-0.2,2.4-0.5c0.3-0.2,0.6-0.5,0.8-1c0.2-0.5,0.3-1.4,0.3-2.9v-21.1
			c0-2.7-0.1-4.3-0.2-4.9c-0.1-0.6-0.3-1-0.6-1.2s-0.6-0.3-1.1-0.3c-0.4,0-0.9,0.1-1.7,0.4l-0.4-0.9l7-2.8H840.5z"/>
		<path class="st1" d="M863.6,265.4c0,3.5,0.8,6.2,2.5,8.1c1.7,2,3.7,2.9,6,2.9c1.5,0,2.8-0.4,4-1.3c1.1-0.8,2.1-2.3,2.8-4.3
			l0.8,0.5c-0.4,2.3-1.4,4.4-3.1,6.3c-1.7,1.9-3.9,2.9-6.4,2.9c-2.8,0-5.2-1.1-7.2-3.3c-2-2.2-3-5.1-3-8.8c0-4,1-7.1,3.1-9.3
			c2-2.2,4.6-3.3,7.7-3.3c2.6,0,4.8,0.9,6.4,2.6c1.7,1.7,2.5,4,2.5,6.9H863.6z M863.6,263.9h10.8c-0.1-1.5-0.3-2.5-0.5-3.2
			c-0.4-0.9-1.1-1.7-1.9-2.2c-0.8-0.5-1.7-0.8-2.6-0.8c-1.4,0-2.7,0.5-3.8,1.6C864.4,260.4,863.8,261.9,863.6,263.9z"/>
		<path class="st1" d="M894.6,256.6h11v0.9h-0.7c-0.7,0-1.2,0.2-1.5,0.5c-0.3,0.3-0.5,0.8-0.5,1.3c0,0.6,0.2,1.3,0.5,2.1l5.4,12.9
			l5.4-13.3c0.4-0.9,0.6-1.7,0.6-2.2c0-0.2-0.1-0.4-0.2-0.6c-0.2-0.3-0.4-0.4-0.7-0.5c-0.3-0.1-0.9-0.1-1.8-0.1v-0.9h7.6v0.9
			c-0.9,0.1-1.5,0.2-1.8,0.5c-0.6,0.5-1.1,1.4-1.6,2.5l-8.3,20h-1l-8.3-19.6c-0.4-0.9-0.7-1.6-1.1-2s-0.8-0.7-1.3-1
			c-0.3-0.2-0.9-0.3-1.7-0.4V256.6z"/>
		<path class="st1" d="M929.8,255.9v18.7c0,1.5,0.1,2.4,0.3,2.9c0.2,0.5,0.5,0.8,0.9,1.1c0.4,0.2,1.2,0.4,2.3,0.4v0.9h-11.3v-0.9
			c1.1,0,1.9-0.1,2.3-0.3c0.4-0.2,0.7-0.6,0.9-1.1c0.2-0.5,0.3-1.5,0.3-2.9v-9c0-2.5-0.1-4.2-0.2-4.9c-0.1-0.5-0.3-0.9-0.6-1.1
			c-0.3-0.2-0.6-0.3-1-0.3c-0.5,0-1.1,0.1-1.7,0.4l-0.4-0.9l7-2.8H929.8z M927.7,243.7c0.7,0,1.3,0.2,1.8,0.7
			c0.5,0.5,0.8,1.1,0.8,1.8s-0.3,1.3-0.8,1.8c-0.5,0.5-1.1,0.8-1.8,0.8s-1.3-0.3-1.8-0.8s-0.8-1.1-0.8-1.8s0.2-1.3,0.8-1.8
			C926.4,244,927,243.7,927.7,243.7z"/>
		<path class="st1" d="M942.6,260.6c2.3-3.1,4.7-4.7,7.3-4.7c2.4,0,4.5,1,6.3,3.1c1.8,2,2.7,4.8,2.7,8.4c0,4.1-1.4,7.5-4.1,10
			c-2.4,2.2-5,3.3-7.9,3.3c-1.4,0-2.7-0.2-4.1-0.7c-1.4-0.5-2.8-1.2-4.3-2.2v-24.1c0-2.6-0.1-4.3-0.2-4.9c-0.1-0.6-0.3-1-0.6-1.2
			c-0.3-0.2-0.6-0.3-1-0.3c-0.5,0-1.1,0.1-1.8,0.4l-0.4-0.9l7-2.8h1.1V260.6z M942.6,262.2v13.9c0.9,0.8,1.8,1.5,2.7,1.9
			c0.9,0.4,1.9,0.6,2.8,0.6c1.5,0,3-0.8,4.3-2.5c1.3-1.7,2-4.2,2-7.4c0-3-0.7-5.3-2-6.9c-1.3-1.6-2.8-2.4-4.5-2.4
			c-0.9,0-1.8,0.2-2.7,0.7C944.6,260.5,943.7,261.2,942.6,262.2z"/>
		<path class="st1" d="M966.2,265.4c0,3.5,0.8,6.2,2.5,8.1c1.7,2,3.7,2.9,6,2.9c1.5,0,2.8-0.4,4-1.3c1.1-0.8,2.1-2.3,2.8-4.3
			l0.8,0.5c-0.4,2.3-1.4,4.4-3.1,6.3c-1.7,1.9-3.9,2.9-6.4,2.9c-2.8,0-5.2-1.1-7.2-3.3c-2-2.2-3-5.1-3-8.8c0-4,1-7.1,3.1-9.3
			c2-2.2,4.6-3.3,7.7-3.3c2.6,0,4.8,0.9,6.4,2.6c1.7,1.7,2.5,4,2.5,6.9H966.2z M966.2,263.9H977c-0.1-1.5-0.3-2.5-0.5-3.2
			c-0.4-0.9-1.1-1.7-1.9-2.2c-0.8-0.5-1.7-0.8-2.6-0.8c-1.4,0-2.7,0.5-3.8,1.6C967,260.4,966.4,261.9,966.2,263.9z"/>
		<path class="st1" d="M992.9,270.7h-1l-2.2-20.6c-0.1-0.9-0.2-1.6-0.2-2c0-1.1,0.3-1.9,0.9-2.6c0.6-0.6,1.2-1,2-1s1.5,0.3,2,1
			c0.5,0.6,0.8,1.6,0.8,2.9c0,0.4,0,1-0.1,1.7L992.9,270.7z M992.4,275c0.8,0,1.4,0.3,2,0.8c0.5,0.6,0.8,1.2,0.8,2
			c0,0.8-0.3,1.4-0.8,2c-0.6,0.5-1.2,0.8-2,0.8c-0.8,0-1.4-0.3-2-0.8c-0.6-0.5-0.8-1.2-0.8-2c0-0.8,0.3-1.4,0.8-2
			C991,275.2,991.6,275,992.4,275z"/>
	</g>
</g>

</svg>
